<?xml version="1.0" encoding="utf-8"?>
<!-- Generator: Adobe Illustrator 20.0.0, SVG Export Plug-In . SVG Version: 6.00 Build 0)  -->
<svg version="1.1" id="Layer_1" xmlns="http://www.w3.org/2000/svg" xmlns:xlink="http://www.w3.org/1999/xlink" x="0px" y="0px"
	 viewBox="0 0 100 100" style="enable-background:new 0 0 100 100;" xml:space="preserve">
<style type="text/css">
	.st0{fill:#FFFFFF;}
</style>
<path class="st0" d="M50,64c-7.7,0-14-6.3-14-14c0-7.7,6.3-14,14-14c7.7,0,14,6.3,14,14C64,57.7,57.7,64,50,64z M50,40
	c-5.5,0-10,4.5-10,10c0,5.5,4.5,10,10,10c5.5,0,10-4.5,10-10C60,44.5,55.5,40,50,40z M53.1,52.5c-0.1,0.1-0.2,0.3-0.3,0.4
	c-0.1,0.1-0.2,0.2-0.4,0.3c-0.4,0.3-0.9,0.6-1.4,0.7c-2.6,1.1-6.7,1.8-6.7,1.8s0.8-4.1,1.8-6.7c0.1-0.5,0.4-1,0.7-1.4
	c0.1-0.1,0.2-0.3,0.3-0.4c0.1-0.1,0.2-0.2,0.4-0.3c0.4-0.3,0.9-0.6,1.4-0.7c2.6-1.1,6.7-1.8,6.7-1.8s-0.8,4.1-1.8,6.7
	C53.7,51.6,53.5,52,53.1,52.5z M50.7,49.3c-0.4-0.4-1-0.4-1.4,0s-0.4,1,0,1.4s1,0.4,1.4,0S51.1,49.7,50.7,49.3z"/>
</svg>
