<?xml version="1.0" encoding="utf-8"?>
<!-- Generator: Adobe Illustrator 20.0.0, SVG Export Plug-In . SVG Version: 6.00 Build 0)  -->
<svg version="1.1" id="Layer_1" xmlns="http://www.w3.org/2000/svg" xmlns:xlink="http://www.w3.org/1999/xlink" x="0px" y="0px"
	 viewBox="0 0 100 100" style="enable-background:new 0 0 100 100;" xml:space="preserve">
<style type="text/css">
	.st0{fill:#FFFFFF;}
</style>
<path class="st0" d="M50,67.9c-4.4,0-8-3.6-8-8c0-2,0.8-3.9,2-5.3V37.9c0-3.3,2.7-6,6-6c3.3,0,6,2.7,6,6v16.7c1.2,1.4,2,3.3,2,5.3
	C58,64.3,54.4,67.9,50,67.9z M52,56.4v-4.3V41.9v-4c0-1.1-0.9-2-2-2c-1.1,0-2,0.9-2,2v4v10.3v4.3c-1.2,0.7-2,2-2,3.4
	c0,2.2,1.8,4,4,4s4-1.8,4-4C54,58.4,53.2,57.1,52,56.4z M50,62.9c-1.7,0-3-1.3-3-3c0-1.3,0.8-2.4,2-2.8V46.8h2v10.2
	c1.2,0.4,2,1.5,2,2.8C53,61.5,51.7,62.9,50,62.9z"/>
</svg>
