<?xml version="1.0" encoding="utf-8"?>
<!-- Generator: Adobe Illustrator 20.0.0, SVG Export Plug-In . SVG Version: 6.00 Build 0)  -->
<svg version="1.1" id="Layer_1" xmlns="http://www.w3.org/2000/svg" xmlns:xlink="http://www.w3.org/1999/xlink" x="0px" y="0px"
	 viewBox="0 0 100 100" style="enable-background:new 0 0 100 100;" xml:space="preserve">
<style type="text/css">
	.st0{fill:#FFFFFF;}
</style>
<path class="st0" d="M66.5,46.5c-3,0-5.5,1.3-5.5,3c0-1.7-2.5-3-5.5-3c-1.9,0-3.5,0.5-4.5,1.3v8.7h1v4c0,1.1,0.9,2,2,2
	c1.1,0,2-0.9,2-2s0.9-2,2-2c1.1,0,2,0.9,2,2c0,3.3-2.7,6-6,6c-3.3,0-6-2.7-6-6v-4h1v-8.7c-1-0.8-2.6-1.3-4.5-1.3c-3,0-5.5,1.3-5.5,3
	l0,0c0-1.7-2.5-3-5.5-3s-5.5,1.3-5.5,3c0-7.2,9.8-16,22-16s22,8.8,22,16C72,47.8,69.5,46.5,66.5,46.5z"/>
</svg>
